#tb 0: 1/11025
0,          0,          0,        0,    30720, 0x0d552cfd
0,        368,        368,        0,    30720, 0x3cf93291
0,        736,        736,        0,    30720, 0xe45b2868
0,       1104,       1104,        0,    30720, 0xb5df289b
0,       1472,       1472,        0,    30720, 0x2562259e
0,       1840,       1840,        0,    30720, 0xbf171878
0,       2208,       2208,        0,    30720, 0x695b1d73
0,       2576,       2576,        0,    30720, 0x89ef1614
0,       2944,       2944,        0,    30720, 0xe12a1dd9
0,       3312,       3312,        0,    30720, 0x49622ffa
0,       3680,       3680,        0,    30720, 0xd6832703
0,       4048,       4048,        0,    30720, 0xec1d0cb7
0,       4416,       4416,        0,    30720, 0x8bee0525
0,       4784,       4784,        0,    30720, 0x1e0cf0c4
0,       5152,       5152,        0,    30720, 0xf83fd9db
0,       5520,       5520,        0,    30720, 0xffb0d6ab
0,       5888,       5888,        0,    30720, 0xe37fe239
0,       6256,       6256,        0,    30720, 0x74b0f856
0,       6624,       6624,        0,    30720, 0x9c88d3e1
0,       6992,       6992,        0,    30720, 0x714db368
0,       7360,       7360,        0,    30720, 0x6c8e8860
0,       7728,       7728,        0,    30720, 0x804968e6
0,       8096,       8096,        0,    30720, 0x7ac56ae4
0,       8464,       8464,        0,    30720, 0xffd85cbf
0,       8832,       8832,        0,    30720, 0x1f8455f9
0,       9200,       9200,        0,    30720, 0x3ae65296
0,       9568,       9568,        0,    30720, 0x9e544ecd
0,       9936,       9936,        0,    30720, 0x35678e5a
0,      10304,      10304,        0,    30720, 0x04bae866
0,      10672,      10672,        0,    30720, 0xb126ed94
0,      11040,      11040,        0,    30720, 0x1720efc5
0,      11408,      11408,        0,    30720, 0x4c1b01c2
0,      11776,      11776,        0,    30720, 0xd0a1e866
0,      12144,      12144,        0,    30720, 0x0d330789
0,      12512,      12512,        0,    30720, 0xf5ac08bb
0,      12880,      12880,        0,    30720, 0x9abe0d83
0,      13248,      13248,        0,    30720, 0xa44c02f4
0,      13616,      13616,        0,    30720, 0xdc4cc688
0,      13984,      13984,        0,    30720, 0x22eef3c1
0,      14352,      14352,        0,    30720, 0xcfbc0d1d
0,      14720,      14720,        0,    30720, 0x7104ea31
0,      15088,      15088,        0,    30720, 0x80daecfb
0,      15456,      15456,        0,    30720, 0xe1bab995
0,      15824,      15824,        0,    30720, 0x43f4b896
0,      16192,      16192,        0,    30720, 0xa0d2bf5c
0,      16560,      16560,        0,    30720, 0x3556a114
